<svg height="96" viewBox="0 0 159 96" width="159" xmlns="http://www.w3.org/2000/svg" xmlns:xlink="http://www.w3.org/1999/xlink"><linearGradient id="a"><stop offset="0" stop-color="#c8951a"/><stop offset=".05" stop-color="#c9971e"/><stop offset=".104" stop-color="#cd9e2b"/><stop offset=".159" stop-color="#d3a940"/><stop offset=".215" stop-color="#dcba5e"/><stop offset=".272" stop-color="#e7cf84"/><stop offset=".329" stop-color="#f5e8b2"/><stop offset=".362" stop-color="#fff9d1"/><stop offset=".394" stop-color="#fcf3c3"/><stop offset=".466" stop-color="#f7e9ab"/><stop offset=".542" stop-color="#f3e19a"/><stop offset=".624" stop-color="#f1dd90"/><stop offset=".724" stop-color="#f1dc8d"/><stop offset="1" stop-color="#c8951a"/></linearGradient><linearGradient id="b" x1="50%" x2="50%" xlink:href="#a" y1="-1.6%" y2="99.6%"/><linearGradient id="c" x1="50%" x2="50%" xlink:href="#a" y1="-5.7%" y2="104.7%"/><linearGradient id="d"><stop offset="0" stop-color="#c8951a"/><stop offset=".043" stop-color="#cea02f"/><stop offset=".134" stop-color="#dfbf68"/><stop offset=".262" stop-color="#faf1c2"/><stop offset=".282" stop-color="#fff9d1"/><stop offset=".419" stop-color="#f8ebb0"/><stop offset=".556" stop-color="#f2e096"/><stop offset=".638" stop-color="#f1dc8d"/><stop offset="1" stop-color="#c8951a"/></linearGradient><linearGradient id="e" x1="50%" x2="50%" xlink:href="#d" y1="7.7%" y2="92.6%"/><linearGradient id="f" x1="50%" x2="50%" xlink:href="#d" y1="6.8%" y2="94.3%"/><linearGradient id="g" x1="50%" x2="50%" xlink:href="#d" y1="6.1%" y2="94.2%"/><linearGradient id="h" x1="0%" x2="100%" xlink:href="#a" y1="50%" y2="50%"/><linearGradient id="i" x1="2.9%" x2="77.9%" y1="57%" y2="47.2%"><stop offset="0" stop-color="#c8951a"/><stop offset=".276" stop-color="#f1dc8d"/><stop offset=".413" stop-color="#f1dd90"/><stop offset=".526" stop-color="#f3e19a"/><stop offset=".63" stop-color="#f7e9ab"/><stop offset=".729" stop-color="#fcf3c3"/><stop offset=".773" stop-color="#fff9d1"/><stop offset=".798" stop-color="#fcf4c8"/><stop offset=".836" stop-color="#f5e8b2"/><stop offset=".884" stop-color="#ead38d"/><stop offset=".94" stop-color="#dbb759"/><stop offset="1" stop-color="#c8951a"/></linearGradient><linearGradient id="j" x1="3.3%" x2="100.5%" y1="3.9%" y2="106.1%"><stop offset="0" stop-color="#c8951a"/><stop offset=".067" stop-color="#ca981f"/><stop offset=".157" stop-color="#d0a330"/><stop offset=".259" stop-color="#dab44c"/><stop offset=".37" stop-color="#e7cc73"/><stop offset=".434" stop-color="#f1dc8d"/><stop offset=".597" stop-color="#f1dc8f"/><stop offset=".683" stop-color="#f3e097"/><stop offset=".751" stop-color="#f5e6a4"/><stop offset=".81" stop-color="#f9eeb7"/><stop offset=".862" stop-color="#fef8d0"/><stop offset=".863" stop-color="#fff9d1"/><stop offset=".889" stop-color="#f1e0a4"/><stop offset=".927" stop-color="#dfc069"/><stop offset=".96" stop-color="#d2a83e"/><stop offset=".985" stop-color="#ca9a23"/><stop offset="1" stop-color="#c8951a"/></linearGradient><radialGradient id="k" cx="49.5872%" cy="160.828%" gradientTransform="matrix(.156749 0 0 1 .418145 0)" r="323.917057%"><stop offset=".084" stop-color="#200"/><stop offset=".206" stop-color="#330001"/><stop offset=".448" stop-color="#600206"/><stop offset=".785" stop-color="#a9050d"/><stop offset="1" stop-color="#db0812"/></radialGradient><g fill="none"><path d="m139.728 44.357c-7.166 0-12.746 4.733-13.833 11.335-1.927-3.076-5.521-5.406-10.619-5.406h-7.769v3.228c-1.522479-2.128903-4.018267-3.3434974-6.633-3.228h-10.567v4.532s.977.178 1.051.189v.085 11.416.038l-.147-.019-6.393-16.242h-6.183l-6.075 15.882c-.05.13-.09.227-.126.315h-.109v-11.4s0-.064 0-.085c.075-.011 1.048-.189 1.048-.189v-4.522h-8.466v3.662l-3.606-3.662h-7.69v3.959c-2.2117927-2.782196-5.5919825-4.3771511-9.1456892-4.3154276-3.5537068.0617235-6.8764696 1.7731007-8.9903108 4.6304276v-4.274h-17.16v4.532s.973.178 1.049.189v.085 7.2h-4.086l-.168 1.8c-.0009692.1231206-.0275315.2446944-.078.357-.018.014-.242.174-1.316.174h-4.064v-14.084c0-.139 0-.413.009-.644l1.377-.25v-4.814h-11.038v4.814l1.377.25c.009.232.009.506.009.644v15.068c0 .138 0 .413-.009.644-.143.027-1.377.249-1.377.249v4.815h36.12v-3.248c2.3144412 2.414261 5.5506691 3.7238003 8.8927617 3.5984552 3.3420926-.1253452 6.4711384-1.6736141 8.5982383-4.2544552v3.9h8.466v-4.533l-1.048-.188c0-.021 0-.086 0-.086v-6.206l4.931 4.8v1.406.086l-1.048.188v4.533h14.789v-4.404l-.628-.164c.13-.349.44-1.171.614-1.637h3.141c.245.6.4.982.636 1.555l-.524.082v4.573h16.7v-4.533l-1.055-.188c0-.021 0-.086 0-.086v-1.6c1.164 1.956 3.807 6.407 3.807 6.407h13.861c6.482 0 9.706-3.269 10.818-6.9 2.164 4.53 6.725 7.368 12.532 7.368 8.241 0 14-5.7 14-13.873-.002-7.726-5.967-13.554-13.875-13.554zm-105.6 12.8c-.189.661-.348 1.333-.479 2.018v-2.016zm-7.667-1.364h2.8l-.4 1.53h-2.4zm4.531 9.486c-.032 0-.089 0-.089 0h-4.312v-2.512h2.1l.131 1.193h2.407c-.053.285-.21 1.186-.232 1.321zm2.623-.835v-2.067c.129.7.281 1.391.445 2.069zm14.644-3.812c0-1.063-.256-4.532-3.554-4.532-3.358 0-3.72 3.337-3.72 4.772 0 1.39.354 4.626001 3.624 4.626001 3.176.001999 3.655-3.047001 3.655-4.864001zm6.393-5.627v.085.916c-.1781873-.3827014-.380944-.7534755-.607-1.11zm0 11.588-.574.1c.2142792-.3516295.4069685-.7159691.577-1.091v.9s.004.072.002.093zm46.55-9.4c0-.27 0-.832-1.764-.877h-.853v1.6130015h1c1.617.0009985 1.617-.5150015 1.617-.7350015zm6.257 8.318s-1.173-1.871-1.96-3.127c1.836971-1.2257259 2.936048-3.2916601 2.926-5.5.002532-.6540013-.090449-1.3048676-.276-1.932.271.045.522.085.529.085v11.53l-.053.008c-.272-.043-.5-.077-.531-.084l-.182-.253-.009.044c-.134995-.2639495-.283182-.5209409-.444-.77zm12.657-4.067c.090316-2.5094153-1.728761-4.6819499-4.215-5.034v8.838c3.684-.193 4.215-2.105 4.215-3.803zm24.969-3.59c0-1.106-.255-6.619-5.325-6.619-5.147 0-5.548 5.3-5.548 6.931 0 1.584.392 6.7450002 5.421 6.7450002 4.923.0009998 5.452-4.9350002 5.452-7.0570002zm-128.6 5.767h2.843v6.368h-18v-2.382l.546-.1c.781-.14.843-.416.843-1.9v-15.068c0-1.483-.062-1.759-.843-1.9l-.546-.1v-2.383h8.388v2.384l-.544.1c-.781.143-.845.419-.845 1.9v15.415h5.391c1.907 0 2.59-.437 2.712-1.732zm15.894 1.438h2.417v4.93h-15.155v-2.1l.545-.1c.428-.079.505-.094.505-1.284v-11.413c0-1.191-.077-1.2-.505-1.282l-.545-.1v-2.1h14.509v4.763h-2.386l-.118-.514c-.2-.891-.2-.891-1.313-.871h-5.067v3.071h3.519c1.043 0 1.111-.2 1.157-.605l.066-.59h2.449v5.769h-2.453l-.066-.592c-.046-.407-.114-.6-1.157-.6h-3.515v5.171h5.642c.98 0 1.235-.187 1.377-1zm21.975-4.376c0 5.689-4.016 9.667-9.764 9.667-5.7 0-9.691-3.928-9.691-9.549-.0264256-2.5818776 1.0040787-5.0622706 2.8522668-6.865321 1.8481881-1.8030505 4.3532979-2.7719225 6.9337332-2.681679 2.5493144-.0902601 5.0246204.8661049 6.8510028 2.6469693 1.8263823 1.7808645 2.844902 4.2312505 2.8189972 6.7820307zm-9.741 6.142c-3.649 0-4.949-3.074-4.949-5.951 0-2.948 1.325-6.1 5.045-6.1 3.6 0 4.879 3.156 4.879 5.857-.003 1.455-.358 6.194-4.974 6.194zm26.772-15.213h.663v2.1l-.544.1c-.428.078-.508.092-.508 1.282v11.416c0 1.189.078 1.2.508 1.284l.544.1v2.1h-5.816v-2.1l.546-.1c.427-.079.505-.094.505-1.284v-1.965c-.332-.325-5.909-5.752-7.582-7.38v9.344c0 1.189.075 1.2.505 1.284l.546.1v2.1h-5.816v-2.1l.546-.1c.428-.079.5-.094.5-1.284v-11.417c0-1.191-.075-1.2-.5-1.282l-.546-.1v-2.1h5.813s4.9 4.979 6.534 6.638v-3.156c0-1.191-.078-1.2-.505-1.282l-.546-.1v-2.1zm19.211 16.174.579.075v2.128h-6.915v-2.112l.559-.089c.1456033-.0074687.2875638-.0481754.415-.119-.0372315-.2581314-.1155563-.5086358-.232-.742 0 0-1.028-2.5-1.289-3.147h-4.948c-.349.936-1.176 3.131-1.178 3.138-.095087.203562-.1555824.4215483-.179.645-.0017779.0142782-.0017779.0287218 0 .043 0 .006.083.1.465.2l.5.127v2.059h-6.008v-2.174l.629-.034c.348-.018.569-.526.8-1.139l5.75-15.031h4.369l6.056 15.382c.255.648.335.753.628.79zm-8.178-7.385c-.337-.852-.748-1.889-1.254-3.166-.487 1.281-.882 2.321-1.2 3.166zm25.411 7.386.562.088v2.114h-5.246s-4.016-6.762-4.37-7.354h-1.515v3.873c0 1.189.075 1.2.505 1.284l.547.1v2.1h-6.676v-2.1l.544-.1c.428-.079.508-.094.508-1.284v-11.416c0-1.191-.08-1.2-.508-1.282l-.544-.1v-2.1h9.237c3.1 0 6.228 1.631 6.228 5.272.029615 2.2396786-1.369472 4.2498614-3.48 5 .984 1.566 3.185 5.079 3.182 5.071.382.593.555.762 1.026.834zm-8.244-8.532h-2.324v-4.264h2.178c2.045.055 3.087.795 3.087 2.2-.001 1.707-1.6 2.064-2.941 2.064zm26.622 2.049c0 4.2-2.614 8.685-9.953 8.685h-7.421v-2.11l.555-.09c.576-.092.615-.177.615-1.28v-11.417c0-1.1-.039-1.186-.615-1.279l-.555-.092v-2.11h6.443c7.101.001 10.93 4.994 10.93 9.693zm-10.882 5.306h-.749v-11.619h.222c1.753974-.0859873 3.464968.5598264 4.724677 1.783327s1.955134 2.9149371 1.920323 4.670673c-.001 3.428-2.058 5.165-6.119 5.165zm36.949-8.7c0 7.388-5.211 12.549-12.671 12.549-7.407 0-12.581-5.095-12.581-12.392 0-7.062 5.463-12.388 12.706-12.388 7.157.005 12.545 5.264 12.545 12.236zm-12.64 8.322c-4.974 0-6.748-4.17-6.748-8.071 0-3.991 1.808-8.257 6.875-8.257 4.907 0 6.649 4.278 6.649 7.944-.001 1.972-.489 8.389-6.777 8.389z" fill="url(#b)"/><path d="m3.703 0c.63978639.00149428 1.26873692.16526915 1.828.476.57961826.31481337 1.05680985.78922858 1.375 1.367.66410793 1.14476678.66791872 2.556665.01 3.705-.31825122.57627517-.79326051 1.05059101-1.37 1.368-1.14258342.6544719-2.54641658.6544719-3.689 0-.57540167-.31816794-1.04925291-.79236582-1.367-1.368-.65946837-1.14802109-.65527354-2.56091498.011-3.705.31678225-.57848938.79390017-1.05317657 1.374-1.367.55914837-.31101718 1.18817411-.47481163 1.828-.476zm.006.726c-.51278752.00035081-1.01701251.13148372-1.465.381-.46636003.2532394-.8502275.6350244-1.106 1.1-.53349839.92182282-.53730596 2.05762102-.01 2.983.25671153.46222346.63777654.84328847 1.1 1.1.91597047.52955129 2.04502953.52955129 2.961 0 .46209375-.25688348.84311652-.63790625 1.1-1.1.53111066-.92408369.52844175-2.06141912-.007-2.983-.25662804-.46467221-.64070925-.84632471-1.107-1.1-.44872593-.24857527-.95302556-.37963813-1.466-.381zm-1.677 4.96v-3.927h.8c.74666667 0 1.165.00333333 1.255.01.21456548.00816928.4249169.06203561.617.158.15446704.08934793.28141987.21941405.367.376.09899649.17097087.15012011.36544786.148.563.0050772.26939403-.09499975.53016802-.279.727-.20782078.21266389-.48405887.34511652-.78.374.09916194.0346228.19229016.08456112.276.148.0980149.09101192.18678093.19150176.265.3.029.039.126.2.291.479l.462.793h-.985l-.328-.637c-.13212201-.30217074-.31969152-.57691088-.553-.81-.15981529-.1157341-.3538236-.17453517-.551-.167h-.203v1.615zm.8-2.233h.322c.28740615.0132779.57540605-.0044916.859-.053.10594863-.03261365.19876368-.09810955.265-.187.06459083-.08671554.09964334-.19187307.10000129-.3.00024563-.10608111-.0349502-.2092049-.10000129-.293-.06697316-.08881808-.16105042-.15340844-.268-.184-.28267073-.05065708-.57017281-.0691082-.857-.055h-.319z" fill="url(#c)" transform="translate(151.266 40.912)"/><g transform="translate(50.091 37.92)"><path d="m6.104 6.615c-.04033099.14602857-.06809884.29523897-.083.446-.6709078.30885414-1.40487704.45612748-2.143.43-.55539113.00890805-1.10815842-.0780327-1.634-.257-.45196382-.15441355-.86678391-.40133027-1.218-.725-.33132574-.30990178-.59103388-.68837264-.761-1.109-.17800664-.44057616-.26770587-.91183688-.264-1.387-.01792055-.63542355.09827083-1.26749104.341-1.855.20621872-.47756844.51884285-.90169746.914-1.24.38977554-.32280317.84232544-.56116655 1.329-.7.51605674-.14915467 1.05082682-.22357796 1.588-.22106474.1930619.00099825.38583798.01503048.577.04206474.2.028.4.065.59.11.18325158.04412947.36387116.09854905.541.163.1502979.05448203.29580019.12137964.435.2-.06888693.17220096-.12340629.34980696-.163.531-.0384284.17828545-.06415966.35907263-.077.541h-.148c-.21903048-.29557393-.49858214-.54103392-.82-.72-.30707815-.14954925-.64554216-.22327748-.987-.215-.2924096.00243163-.58102064.06649169-.847.188-.29557707.13542725-.55853438.33290102-.771.579-.25022695.29085655-.44114473.62785022-.562.992-.15390237.4658184-.22695669.95453831-.216 1.445-.01163934.47023363.06292355.93862416.22 1.382.12588059.34762636.32156052.66581894.575.935.22293496.23539285.4965065.41697595.8.531.28724996.11039711.59226697.16733362.9.168.17294886-.00030356.34533243-.0197554.514-.058.1755845-.03849397.34780226-.0909953.515-.157.1675004-.06546216.32770331-.14824484.478-.247.14371316-.09238539.27596913-.20147977.394-.325l.136.083c-.061.15-.11.298-.153.45z" fill="url(#e)"/><path d="m13.293 7.356c-.17-.014-.329-.021-.479-.021h-.894c-.15 0-.3.007-.445.021-.112-.343-.229-.694-.347-1.051s-.246-.715-.379-1.072c-.225-.007-.448-.013-.673-.016s-.448-.006-.671-.006c-.183 0-.367 0-.548.006s-.363.009-.545.016c-.14.357-.271.714-.389 1.072s-.229.707-.326 1.051c-.08226498-.01396447-.16555821-.0209892-.249-.021h-.5c-.09138662.00042541-.18262346.00744363-.273.021.083-.183.2-.435.335-.757s.3-.687.462-1.093.349-.842.542-1.308.384-.937.577-1.414.381-.945.568-1.407.355-.893.509-1.292l.2.036c.06610765.01087008.133005.01622187.2.016.0669991.00033026.1339055-.00502225.2-.016l.2-.036c.2253333.59533333.4653333 1.23266667.72 1.912s.5123333 1.346.773 2c.258.65466667.51 1.27633333.756 1.865s.4713333 1.08666667.676 1.494zm-3.721-5.244c-.182.42066667-.35333333.83566667-.514 1.245s-.318.828-.472 1.256h1.923c-.156-.428-.307-.847-.458-1.256s-.31-.82-.48-1.245z" fill="url(#f)"/><path d="m15.093 1.292c-.0004326-.1234081-.0087831-.2466613-.025-.369-.106 0-.234 0-.389.011s-.319.016-.5.026-.354.025-.535.043-.35.036-.5.058c.012-.078.026-.155.036-.232.0207889-.15329841.0207889-.30870159 0-.462-.009-.077-.023-.154-.036-.232l.646.021c.191.007.389.012.587.016l.652.01h.846.847l.645-.01c.2 0 .387-.009.573-.016l.6-.021c-.012.077-.025.155-.036.232-.0198454.15336065-.0198454.30863935 0 .462.011.077.024.153.036.232-.139-.022-.3-.041-.472-.058s-.35-.032-.52-.043-.335-.019-.49-.026-.283-.011-.389-.011c-.0082253.04895301-.0132361.09839212-.015.148 0 .063-.006.136-.006.221v3.183c0 .582.007 1.09866667.021 1.55s.0353333.89466667.064 1.33c-.12947-.01470992-.259699-.02172225-.39-.021h-.937c-.1299671-.00066639-.25986.00634583-.389.021.028-.43466667.049-.878.063-1.33.016-.452.021-.968.021-1.55v-2.626c-.003-.204-.004-.389-.008-.557z" fill="url(#g)"/><path d="m23.033 1.497c-.014-.452-.0353333-.90566667-.064-1.361.3146667.00733333.6263333.01766667.935.031s.6203333.02033333.935.021c.5193333 0 .98-.005 1.382-.015.4-.011.674-.023.814-.038-.0314901.14479492-.0452578.29288158-.041.441 0 .113 0 .2.009.263s.018.134.032.21l-.667-.043c-.242-.013-.476-.028-.7-.041s-.433-.025-.617-.032-.31-.011-.388-.011c-.028.386-.043.767-.048 1.146s0 .76 0 1.145c.454-.00733333.8656667-.01766667 1.235-.031.366-.014.75-.032 1.15-.053-.023.119-.035.21-.042.273-.0081547.06634393-.0118296.13316194-.011.2.0005633.05800872.0059149.11587191.016.173.011.06.022.146.038.257-.8-.063-1.593-.094-2.385-.094v.536c0 .582.006 1.1.021 1.55s.034.9.062 1.33c-.1288053-.01465436-.2583655-.02166664-.388-.021h-.946c-.1299679-.00069913-.2598627.00631318-.389.021.028-.43466667.0493333-.878.064-1.33.012-.452.021-.968.021-1.55v-1.427c-.007-.582-.016-1.098-.028-1.55z" fill="url(#g)"/><path d="m28.386 2.301c.1883972-.45038728.4651856-.85842906.814-1.2.3650795-.35247518.7977822-.6273366 1.272-.808.5293174-.20254628 1.0923049-.30265558 1.659-.295.5307807-.00409845 1.0590093.07382033 1.566.231.4625919.14329939.8912575.37906546 1.26.693.3669142.32174223.6561558.72244103.846 1.172.2169219.52424732.3228164 1.08776924.311 1.655.0031258.50583525-.0990397 1.00678665-.3 1.471-.1956065.44858196-.4780286.85403271-.831 1.193-.3645968.3464983-.7951241.61617302-1.266.793-.5174509.19390339-1.0664542.28986876-1.619.283-.5270464.00529342-1.0523121-.06200519-1.561-.2-.4663504-.12616578-.8999179-.35164816-1.271-.661-.3705052-.31848652-.6630075-.7177265-.855-1.167-.2241581-.53803381-.332181-1.11733648-.317-1.7-.0026034-.50142514.0967411-.99814733.292-1.46zm5.836.006c-.0971172-.33303284-.2554914-.64503323-.467-.92-.193652-.24731947-.441298-.44707811-.724-.584-.291197-.13626895-.6095295-.20465402-.931-.2-.338126-.0053077-.6709972.08405834-.961.258-.2889368.17705772-.5348751.41616439-.72.7-.2048886.31807874-.3559152.66777124-.447 1.035-.1030193.41437529-.1537472.84001955-.151 1.267-.0102846.47882567.0496864.95657242.178 1.418.0961747.34008492.2608824.65690906.484.931.1884631.22407326.4287419.39879029.7.509.2678485.10516451.5532496.15844392.841.15702858.3110356.00010178.6182935-.06817776.9-.20002858.2954771-.13995137.55303-.34880583.751-.609.233458-.31233723.4076715-.6648315.514-1.04.1390842-.48481701.2048125-.98772262.195-1.492.0090154-.4158609-.0456161-.8306551-.162-1.23z" fill="url(#e)"/><path d="m37.4 2.301c.1892641-.45016294.4663242-.85810422.815-1.2.3645443-.35266817.7969633-.62756552 1.271-.808.5300091-.20256084 1.0936537-.30266629 1.661-.295.5307763-.00403444 1.0589951.0738829 1.566.231.4622054.14350006.8905053.37925206 1.259.693.3673294.32136435.6566452.72216593.846 1.172.2165517.52432842.3221041 1.0878418.31 1.655.0031258.50583525-.0990397 1.00678665-.3 1.471-.1953746.44871155-.4778266.85420526-.831 1.193-.3643861.34627754-.7945405.6159316-1.265.793-.5167983.19374914-1.0651177.28971352-1.617.283-.5270487.00533156-1.0523195-.06196772-1.561-.2-.4665773-.12635665-.9004322-.35181109-1.272-.661-.370372-.31883786-.6631317-.71796239-.856-1.167-.2234446-.53819071-.3307838-1.11748169-.315-1.7-.002506-.50111864.0957751-.99762536.289-1.46zm5.837.006c-.0968318-.33314569-.2552318-.64519701-.467-.92-.1936823-.2476903-.4417448-.44750892-.725-.584-.2905318-.13613879-.6081854-.20452493-.929-.2-.3387764-.00546861-.6723335.08389558-.963.258-.2886772.17704236-.5342919.41616653-.719.7-.2066223.31715116-.3577791.66714504-.447 1.035-.1033562.41433264-.1544202.83997753-.152 1.267-.0102846.47882567.0496864.95657242.178 1.418.0949948.34055156.2598226.65760676.484.931.1886833.22383676.428899.39850786.7.509.2674545.10532263.5525593.15861006.84.15703542.311032 0 .618283-.06821568.9-.20003542.2951562-.14001945.5523687-.34887604.75-.609.233504-.31245092.4080295-.66489068.515-1.04.1397412-.48477807.2071347-.98753346.2-1.492.006431-.41620173-.0505556-.83095595-.169-1.23z" fill="url(#e)"/><path d="m46.674 1.497c-.016-.452-.035-.9-.064-1.361.119.014.249.026.389.038s.3.015.473.015c.232 0 .491-.009.779-.026s.661-.026 1.124-.026c.5525823-.00459872 1.1040657.05004675 1.645.163.4587186.09444937.8930727.28235176 1.276.552.3641229.26889588.6505053.6294616.83 1.045.390362 1.04125651.392492 2.18830087.006 3.231-.1810616.44799894-.4488564.8558083-.788 1.2-.3292252.33031222-.7226526.58964758-1.156.762-.4455974.17623892-.9208227.26551339-1.4.26305163-.5246667 0-.973-.0037183-1.345-.01105163s-.6943333-.01066667-.967-.01h-.473c-.1299671-.00066639-.25986.00634583-.389.02105163.029-.43505163.048-.87805163.064-1.33005163s.021-.968.021-1.55v-1.426c-.0026667-.582-.011-1.09866667-.025-1.55zm1.576 3.746v.631.556.326c.106.007.232.014.379.021s.329.01.547.01c.7174779.03197702 1.4102473-.26560816 1.881-.808.6818424-1.07534273.8714403-2.39088292.521-3.615-.1040989-.32169992-.2706079-.61971706-.49-.877-.2076089-.23939694-.4658366-.42965197-.756-.557-.3121599-.13299198-.6487289-.19907943-.988-.194-.252 0-.457 0-.614.016s-.318.022-.479.037v.325.568 3.562z" fill="url(#g)"/></g><g fill="url(#h)" transform="translate(2.07 32.008)"><path d="m31.603 6.725h-31.6l1.154 1.155h31.914l-1.321-6.714h24.4l.789-1.154h-26.647z"/><path d="m117.408 6.725 1.335-6.713-26.528-.009 1.253 1.165h23.81l-1.331 6.713h.006v.007h32.213l1.156-1.155z"/></g><path d="m60.922 33.171c1.512-1.729 4.871-6.281 2.905-8.659-2.986-3.613-5.518-7.229-2.746-11.807.6-.989-.1-2.022-.379-3.1-.548-2.135-1.021-4.234-1.684-6.348-1.218-3.89 3.211.254 4.327 1.294s2.319 1.982 3.438 3.012c.7.647 3.15-.179 4-.2 1.3-.036 1.823.259 2.633-.707.5340004-.67112571 1.0182877-1.38034437 1.449-2.122.4286667-.73333333.8793333-1.45466667 1.352-2.164 1.257-1.875 3.753-.708 4.484.987.879 2.037.5 4.35.722 6.478.1858733.482417.4416031.9349139.759 1.343.7377809 1.3288783 1.0844699 2.8394022 1 4.357-.2581044 2.2398795.0481923 4.5087436.891 6.6 1.676 4.239 4.733 7.711 7.957 10.946.1.1.108.084.108.084h1.748s-.6-.539-.7-.638c-3.8621911-3.6764908-6.8573274-8.166804-8.768-13.145-.842-2.253.312-4.977-.426-7.4-.3244587-.8505502-.7434179-1.6619691-1.249-2.419-.472-.81-.1-2.747-.2-3.746-.335-3.164-2.393-7.55-6.243-5.112-1.906 1.208-2.856 4.242-4.24 5.89.4946667-.12.5843333-.17533333.269-.166-.843-.023-1.681-.013-2.525.011-.6586088.01578415-1.3143704.09210556-1.959.228-.982.218.122.353-.3-.036-2.207-2.031-5.742-6.565-9.023-6.193-2.669.3.537 7.438.749 8.756.1941779 1.0219132.4639185 2.0280088.807 3.01-.3090608.4334518-.5835728.8905261-.821 1.367-1.0109442 2.0982857-1.0587624 4.532632-.131 6.669.9088038 1.7144129 2.060347 3.2886488 3.419 4.674 1.816 2.171-1.2 6.137-2.62 7.755-.252.289-.44.5-.44.5z" fill="url(#i)"/><path d="m107.336 73.835c.9 1.085 1.756 2.207 2.6 3.338s1.666 2.281 2.435 3.474c.82415 1.1949153 1.500415 2.4853269 2.014 3.843.826541 2.1610454.742849 4.5646775-.232 6.663-.342885.7360645-.843358 1.3877718-1.466 1.909-1.230333.9591577-2.706075 1.5521579-4.258 1.711-2.870209.2447072-5.760319.1007399-8.592-.428-5.556-.836-11.122-1.674-16.722-2.191s-11.218-.8-16.828-.892c-2.8-.026-5.608-.081-8.381.068-2.7396092.0742019-5.4543456.5416444-8.061 1.388-1.3059569.4411431-2.5886159.948466-3.843 1.52-.639.282-1.286.574-1.965.847-.7197377.315158-1.4790511.530807-2.257.641-.8503342.1026141-1.7128716-.0020294-2.514-.305-.4388488-.1695331-.8408635-.4221505-1.184-.744-.0922618-.0839351-.177543-.1752362-.255-.273-.0885574-.1099013-.1678301-.2269707-.237-.35-.1198939-.210886-.2164633-.4342027-.288-.666-.2575894-.8560422-.2575894-1.7689578 0-2.625.1886296-.6458822.5209221-1.2407269.972-1.74.1-.114.276-.3.425-.429.6076254-.5491707 1.3123395-.9802061 2.078-1.271.7215384-.2669449 1.4704452-.4530816 2.233-.555l1.032-.161c.365-.059.719-.109 1.08-.153.717-.092 1.434-.147 2.15-.189 2.8414834-.1389954 5.6890545-.0895538 8.524.148 1.468.075 2.833.335 4.234.524l4.175.634c2.7813333.4373333 5.5576667.907 8.329 1.409.0464169.0091031.0773344.053271.07.1-.008862.0437379-.0484367.0743763-.093.072-2.808-.2153333-5.612-.4513333-8.412-.708l-4.2-.379c-1.392-.106-2.814-.268-4.159-.282-2.7804715-.0971717-5.5642086-.0377444-8.338.178-.688.062-1.37.145-2.046.239-.336.048-.677.1-1 .162l-1.049.182c-1.2300381.1226226-2.3924284.6212388-3.329 1.428-.112.1-.182.175-.318.321-.0826981.0952281-.1595075.1954143-.23.3-.1427863.2158715-.252656.4517882-.326.7-.1511719.4991925-.1556843 1.0313156-.013 1.533.125.744 1.387 1.2 2.512 1.088.6163584-.0792097 1.218559-.2444866 1.789-.491.63-.244 1.269-.524 1.921-.8 1.3133495-.5765697 2.6550696-1.0862231 4.02-1.527 2.7604378-.8674732 5.6354998-1.3154691 8.529-1.329 2.85-.023 5.672.085 8.487.3 5.627.423 11.22 1.054 16.823 1.56 5.6.531 11.223.869 16.835 1.375 1.4.112 2.783.248 4.162.3 1.355636.0845082 2.71594.0567469 4.067-.083 1.266419-.1020982 2.478905-.5569537 3.5-1.313.463491-.3796654.843738-.8508038 1.117-1.384.285062-.5743006.494795-1.1829972.624-1.811.234904-1.2819494.149369-2.6020824-.249-3.843-.433558-1.2937053-1.001317-2.538485-1.694-3.714-.677-1.218-1.393-2.424-2.113-3.63l-2.216-3.589c-.012556-.0196984-.016663-.0436185-.011397-.0663769.005267-.0227584.019464-.0424428.039397-.0546231.035202-.0165278.077078-.0079898.103.021z" fill="url(#j)"/><path d="m1.99 68.155c1.386-.251 1.386-1.2 1.386-2.553v-15.064c0-1.355 0-2.3-1.386-2.553v-1.167h7.061v1.167c-1.387.251-1.387 1.2-1.387 2.553v16.076h6.053c1.7 0 3.185-.314 3.373-2.331h1.576v5.043h-16.676zm18.315.283c1.052-.191 1.052-.909 1.052-1.933v-11.414c0-1.026 0-1.745-1.052-1.934v-.884h13.183v3.439h-1.194c-.31-1.362-.694-1.409-1.959-1.386h-5.731v4.4h4.179c.907 0 1.695-.12 1.816-1.193h1.195v4.44h-1.195c-.121-1.073-.909-1.194-1.816-1.194h-4.179v6.5h6.3c1.171 0 1.816-.312 2.029-1.551h1.2v3.6h-13.828zm15.26-7.642c-.0314825-2.4073377.9272883-4.7219203 2.6518434-6.4018536s4.0634709-2.5777119 6.4691566-2.4831464c2.374075-.0931072 4.6822784.7924763 6.3848257 2.4496527 1.7025474 1.6571763 2.6501384 3.9406238 2.6211743 6.3163473 0 5.3-3.724 9.0000133-9.1 9.0000133-5.278.0079867-9.027-3.5990133-9.027-8.8770133zm14.69-.167c0-3.486-1.866-6.521-5.543-6.521-3.94 0-5.708 3.153-5.708 6.76 0 3.51 1.791 6.6150036 5.614 6.6150036 3.988.0039964 5.637-3.2920036 5.637-6.8500036zm8.785-5.04v10.916c0 1.024 0 1.742 1.051 1.933v.884h-4.491v-.884c1.051-.191 1.051-.909 1.051-1.933v-11.414c0-1.026 0-1.745-1.051-1.934v-.884h4.874l7.475 7.595v-4.777c0-1.026 0-1.745-1.048-1.934v-.884h4.486v.882c-1.05.189-1.05.908-1.05 1.934v11.419c0 1.024 0 1.742 1.05 1.933v.884h-4.486v-.884c1.048-.191 1.048-.909 1.048-1.933v-2.245zm30.3 11.608c.239.62.43 1.146 1.171 1.241v.884h-5.587v-.884c1.217-.191 1.1-.788.691-1.767l-1.457-3.559h-5.851l-1.333 3.563c-.382.98-.357 1.481.739 1.767v.884h-4.68v-.884c.884-.048 1.194-1.075 1.456-1.745l5.518-14.424h3.461zm-5.945-6.139-2.246-5.66-2.15 5.66zm22.851 6.257c.276053.5970255.830697 1.01788 1.48 1.123v.884h-4.205l-4.369-7.356h-2.556v4.54c0 1.024 0 1.742 1.051 1.933v.884h-5.35v-.884c1.05-.191 1.05-.909 1.05-1.933v-11.415c0-1.026 0-1.745-1.05-1.934v-.884h8.577c2.865 0 5.563 1.482 5.563 4.609.026083 2.2726613-1.603663 4.227169-3.844 4.61zm-6.663-7.4c1.814 0 3.6-.644 3.6-2.722 0-2.2-1.912-2.818-3.749-2.867h-2.841v5.589zm9.91 8.527c1.169-.191 1.169-.909 1.169-1.933v-11.418c0-1.026 0-1.745-1.169-1.934v-.884h5.781c6.736 0 10.271 4.634 10.271 9.028 0 3.248-1.863 8.024-9.293 8.024h-6.759zm4.418-1.17h1.41c3.893 0 6.783-1.575 6.783-5.827.041582-1.9339271-.721593-3.7983199-2.107294-5.1479995-1.385701-1.3496795-3.269544-2.0634945-5.201706-1.9710005h-.884zm13.771-9.2c0-6.871 5.3-11.726 12.044-11.726 6.65 0 11.885 4.792 11.885 11.569 0 7-4.917 11.884-12.012 11.884-6.964-.001-11.915-4.759-11.915-11.728zm19.392-.217c0-4.6-2.458-8.606-7.31-8.606-5.2 0-7.536 4.161-7.536 8.92 0 4.636 2.363 8.734 7.408 8.734 5.262-.004 7.438-4.355 7.438-9.048z" fill="url(#k)"/></g></svg>