<svg height="293.96" viewBox="0 0 600 293.96" width="600" xmlns="http://www.w3.org/2000/svg"><path d="m227.5.24-11 81.37-5.69 47.26c13.78-17.25 32.74-31.38 54.8-33.45a42.45 42.45 0 0 1 35.17 16.2l14.22-111.62zm32.9 185.84c15.51-20 30-43.43 22.75-70-2.76-5.86-6.9-13.09-15.51-10.68-31.71 7.93-43.77 42.05-46.88 70.66.7 9.65 0 21.37 10.34 26.2 12.07 1.39 20.69-7.57 29.3-16.18zm-18.61 24.13c-15.16 1.37-28.61-4.14-38.26-16.21 0 0-8.27 66.18-11 100h87.54c-.1.85 13.1-117.49 13.1-117.49-12.43 18.18-30.7 31.27-51.38 33.7zm-146.49-111.34h-91.69l-3.61 26.36h30.8l-10.64 87 28.27.35 12.1-87.81h31zm87.54 102.37 2-23s1.73-9.9-.22-14.64a11 11 0 0 0 -5.9-6.13 36.55 36.55 0 0 0 16.67-28.56c2.37-33-32.52-29.94-32.52-29.94l-57.3-.22-14.41 114.25 29.25-.46 5.39-42.23h19s6.68.44 9.26 3.24.65 11.85.65 11.85-2.59 12.92-1.94 18.1a20.18 20.18 0 0 0 3.92 9.16l27.76-.12 1.49-5.39s1.51-2.8 0-4.52a3.24 3.24 0 0 0 -3.1-1.39zm-29.84-56.19h-23.7l2.59-20.33 26.49.3s10.12-2.15 8.83 9-14.21 11.03-14.21 11.03zm227.43-46.31-31.23 71.74-12.28-71.48-28.26-.08 23.78 113.4h23.09l52.91-113.32zm19.18 113.75h86.18l3.65-26.5-57.39-.61 2.76-18.61h52.92l3.27-25.5-53.05.55 2.38-17 56.65-.22 3.24-25.6-86.39-.44zm108.71-113.64-3.62 26.37h30.8l-10.65 87 28.28.34 12.1-87.8h31l3.77-25.91z" fill="#0091cc"/></svg>